<?xml version="1.0" encoding="iso-8859-1"?>
<!-- Generator: Adobe Illustrator 19.0.0, SVG Export Plug-In . SVG Version: 6.00 Build 0)  -->
<svg version="1.1" id="Capa_1" xmlns="http://www.w3.org/2000/svg" xmlns:xlink="http://www.w3.org/1999/xlink" x="0px" y="0px"
	 viewBox="0 0 512.003 512.003" style="enable-background:new 0 0 512.003 512.003;" xml:space="preserve">
<path style="fill:#06AAE9;" d="M256.003,392.533c-75.409,0-136.533-61.124-136.533-136.533s61.124-136.533,136.533-136.533V8.533
	C119.333,8.525,8.528,119.313,8.519,255.983c0,136.678,110.788,247.475,247.458,247.484c27.315,0,54.443-4.523,80.282-13.38
	l-36.011-105.028C286.015,389.982,271.064,392.508,256.003,392.533L256.003,392.533z"/>
<path style="fill:#39B54A;" d="M392.536,256H503.47c0-136.67-110.797-247.467-247.467-247.467v110.933
	C331.412,119.467,392.536,180.591,392.536,256z"/>
<path style="fill:#FBB03B;" d="M352.549,352.546l78.438,78.438C477.469,384.623,503.555,321.647,503.47,256H392.536
	C392.579,292.224,378.192,326.963,352.549,352.546z"/>
<path style="fill:#ED1C24;" d="M352.549,352.546c-14.729,14.677-32.623,25.796-52.301,32.512l36.011,105.028
	c35.661-12.228,68.062-32.444,94.72-59.102L352.549,352.546z"/>
<path d="M256.003,0C114.708-0.085,0.088,114.398,0.003,255.693c-0.043,78.447,35.9,152.585,97.527,201.131l-16.367,21.043H8.536
	v17.067h76.8c2.637,0,5.12-1.212,6.741-3.294l19.166-24.653c66.697,45.901,151.202,57.463,227.78,31.164
	c36.873-12.689,70.383-33.596,97.997-61.133c99.977-99.977,99.968-262.067,0-362.035C389.012,26.974,323.894,0,256.003,0L256.003,0z
	 M264.536,17.22c125.201,4.617,225.63,105.045,230.246,230.246h-93.961c-4.42-73.361-62.925-131.866-136.286-136.286V17.22z
	 M384.003,256c0.094,33.963-13.414,66.551-37.495,90.505c-13.815,13.747-30.575,24.166-49.015,30.481
	c-66.85,22.878-139.597-12.766-162.475-79.616s12.766-139.597,79.616-162.475s139.597,12.766,162.475,79.616
	C381.682,227.866,384.012,241.886,384.003,256L384.003,256z M256.003,494.933c-47.915,0.051-94.72-14.387-134.281-41.421
	l21.06-27.076c0.759,0.128,1.519,0.205,2.287,0.23c9.429,0,17.067-7.637,17.067-17.067s-7.637-17.067-17.067-17.067
	c-9.429,0-17.067,7.637-17.067,17.067c0,2.202,0.435,4.378,1.271,6.409l-21.274,27.358C4.449,361.711-13.309,211.558,68.355,108.006
	c43.46-55.117,108.971-88.32,179.115-90.786v93.961c-79.983,4.676-141.03,73.31-136.346,153.293
	c4.48,76.715,68.028,136.627,144.879,136.593c13.141-0.009,26.223-1.826,38.869-5.393l30.498,88.96
	C302.885,491.469,279.512,494.942,256.003,494.933L256.003,494.933z M341.516,479.096l-30.507-88.969
	c15.13-6.195,29.107-14.882,41.353-25.702l66.449,66.449C396.351,451.721,370.119,468.088,341.516,479.096z M430.885,418.816
	l-66.441-66.449c21.734-24.311,34.56-55.279,36.378-87.834h93.961C492.905,322.005,470.19,376.841,430.885,418.816L430.885,418.816z
	"/>
<path d="M8.536,8.533h68.267V25.6H8.536V8.533z"/>
<path d="M8.536,42.667h68.267v17.067H8.536V42.667z"/>
<path d="M426.67,8.533h76.8V25.6h-76.8V8.533z"/>
<path d="M273.07,187.733h76.8V204.8h-76.8V187.733z"/>
<path d="M273.07,221.867h76.8v17.067h-76.8V221.867z"/>
<path d="M273.07,256h76.8v17.067h-76.8V256z"/>
<g>
</g>
<g>
</g>
<g>
</g>
<g>
</g>
<g>
</g>
<g>
</g>
<g>
</g>
<g>
</g>
<g>
</g>
<g>
</g>
<g>
</g>
<g>
</g>
<g>
</g>
<g>
</g>
<g>
</g>
</svg>
